<?xml version="1.0" encoding="UTF-8"?>
<svg width="35px" height="35px" viewBox="0 0 35 35" version="1.1" xmlns="http://www.w3.org/2000/svg" xmlns:xlink="http://www.w3.org/1999/xlink">
    <!-- Generator: Sketch 46.2 (44496) - http://www.bohemiancoding.com/sketch -->
    <title>001-linkedin-symbol</title>
    <desc>Created with Sketch.</desc>
    <defs></defs>
    <g id="web-design" stroke="none" stroke-width="1" fill="none" fill-rule="evenodd">
        <g id="single-profile" transform="translate(-479.000000, -431.000000)" fill="#404040">
            <g id="Group-10" transform="translate(369.000000, 431.000000)">
                <g id="001-linkedin-symbol" transform="translate(110.000000, 0.000000)">
                    <path d="M17.4553571,0 C7.81535714,0 0,7.815 0,17.4553571 C0,27.0957143 7.81535714,34.9107143 17.4553571,34.9107143 C27.0953571,34.9107143 34.9107143,27.0957143 34.9107143,17.4553571 C34.9107143,7.815 27.0953571,0 17.4553571,0 Z M10.6079831,24.3644144 L13.637283,24.3644144 L13.637283,15.2634007 L10.6079831,15.2634007 L10.6079831,24.3644144 Z M13.8339908,12.4570363 C13.8208769,11.5652943 13.1782982,10.883374 12.1423038,10.883374 C11.1063095,10.883374 10.4243891,11.5652943 10.4243891,12.4570363 C10.4243891,13.3225506 11.0800818,14.0306986 12.1029623,14.0306986 L12.1160761,14.0306986 C13.1782982,14.0306986 13.8339908,13.3225506 13.8339908,12.4570363 Z M18.3320422,16.5463133 L18.3320422,16.5878998 L18.3058145,16.5878998 C18.314399,16.5741647 18.3231396,16.5602984 18.3320422,16.5463133 L18.3320422,16.5463133 Z M18.3320422,16.5463133 L18.3320422,15.2634007 L15.3027423,15.2634007 C15.3027423,15.2634007 15.3420838,16.1158012 15.3027423,24.3644144 L18.3320422,24.3644144 L18.3320422,19.2762396 C18.3320422,19.0139626 18.3451561,18.7385717 18.4238392,18.5418639 C18.6467747,18.0041959 19.1451011,17.4403003 19.9843877,17.4403003 C21.0728374,17.4403003 21.5055946,18.266473 21.5055946,19.4991751 L21.5055946,24.3644144 L24.5348945,24.3644144 L24.5348945,19.1451011 C24.5348945,16.3518505 23.0399153,15.0535791 21.0466097,15.0535791 C19.4559745,15.0535791 18.7311373,15.9193772 18.3320422,16.5463133 L18.3320422,16.5463133 Z M27.6428776,11.2767895 L27.6428776,23.866088 C27.6428776,25.9511906 25.9511906,27.6428776 23.866088,27.6428776 L11.2767895,27.6428776 C9.19168698,27.6428776 7.5,25.9511906 7.5,23.866088 L7.5,11.2767895 C7.5,9.19168698 9.19168698,7.5 11.2767895,7.5 L23.866088,7.5 C25.9511906,7.5 27.6428776,9.19168698 27.6428776,11.2767895 Z" id="linkedin-square---FontAwesome"></path>
                </g>
            </g>
        </g>
    </g>
</svg>