<?xml version="1.0" encoding="UTF-8"?>
<svg width="35px" height="35px" viewBox="0 0 35 35" version="1.1" xmlns="http://www.w3.org/2000/svg" xmlns:xlink="http://www.w3.org/1999/xlink">
    <!-- Generator: Sketch 46.2 (44496) - http://www.bohemiancoding.com/sketch -->
    <title>004-instagram-logo copy</title>
    <desc>Created with Sketch.</desc>
    <defs></defs>
    <g id="web-design" stroke="none" stroke-width="1" fill="none" fill-rule="evenodd">
        <g id="single-profile" transform="translate(-588.000000, -431.000000)" fill="#404040">
            <g id="Group-10" transform="translate(369.000000, 431.000000)">
                <g id="004-instagram-logo-copy" transform="translate(219.000000, 0.000000)">
                    <path d="M17.3782,0 C7.7959,0 0,7.7959 0,17.3782 C0,26.9598 7.7959,34.7564 17.3782,34.7564 C26.9598,34.7564 34.7564,26.9598 34.7564,17.3782 C34.7564,7.7959 26.9612,0 17.3782,0 Z M18.9401042,17.1171875 C18.9401042,16.7916667 18.9010417,16.53125 18.8619792,16.2838542 L14.1484375,16.2838542 L14.1484375,18.0026042 L16.9739583,18.0026042 C16.8697917,18.7317708 16.1276042,20.1510417 14.1484375,20.1510417 C12.4296875,20.1510417 11.0364583,18.7447917 11.0364583,17 C11.0364583,15.2552083 12.4296875,13.8489583 14.1484375,13.8489583 C15.1119792,13.8489583 15.7630208,14.2526042 16.140625,14.6171875 L17.4947917,13.3020833 C16.6223958,12.4947917 15.4895833,12 14.1484375,12 C11.375,12 9.1484375,14.2395833 9.1484375,17 C9.1484375,19.7604167 11.375,22 14.1484375,22 C17.0260417,22 18.9401042,19.96875 18.9401042,17.1171875 Z M23.4322917,17.7161458 L24.8515625,17.7161458 L24.8515625,16.2838542 L23.4322917,16.2838542 L23.4322917,14.8515625 L22,14.8515625 L22,16.2838542 L20.5677083,16.2838542 L20.5677083,17.7161458 L22,17.7161458 L22,19.1484375 L23.4322917,19.1484375 L23.4322917,17.7161458 Z M27,10.75 L27,23.25 C27,25.3203125 25.3203125,27 23.25,27 L10.75,27 C8.6796875,27 7,25.3203125 7,23.25 L7,10.75 C7,8.6796875 8.6796875,7 10.75,7 L23.25,7 C25.3203125,7 27,8.6796875 27,10.75 Z" id="google-plus-square---FontAwesome"></path>
                </g>
            </g>
        </g>
    </g>
</svg>