<?xml version="1.0" encoding="UTF-8"?>
<svg width="23px" height="20px" viewBox="0 0 23 20" version="1.1" xmlns="http://www.w3.org/2000/svg" xmlns:xlink="http://www.w3.org/1999/xlink">
    <!-- Generator: Sketch 46.2 (44496) - http://www.bohemiancoding.com/sketch -->
    <title></title>
    <desc>Created with Sketch.</desc>
    <defs></defs>
    <g id="web-design" stroke="none" stroke-width="1" fill="none" fill-rule="evenodd" fill-opacity="0.87">
        <g id="profile-edit-sukses" transform="translate(-297.000000, -494.000000)" fill="#404040">
            <g id="form" transform="translate(180.000000, 313.000000)">
                <g id="Group" transform="translate(0.000000, 49.000000)">
                    <path d="M125.175781,143.46875 C125.175781,141.335927 126.242177,140.269531 128.375,140.269531 C130.507823,140.269531 131.574219,141.335927 131.574219,143.46875 C131.574219,145.601573 130.507823,146.667969 128.375,146.667969 C126.242177,146.667969 125.175781,145.601573 125.175781,143.46875 Z M137.71875,134.125 C138.260419,134.125 138.734373,134.328123 139.140625,134.734375 C139.546877,135.140627 139.75,135.614581 139.75,136.15625 L139.75,149.96875 C139.75,150.510419 139.546877,150.984373 139.140625,151.390625 C138.734373,151.796877 138.260419,152 137.71875,152 L119.03125,152 C118.489581,152 118.015627,151.796877 117.609375,151.390625 C117.203123,150.984373 117,150.510419 117,149.96875 L117,136.15625 C117,135.614581 117.203123,135.140627 117.609375,134.734375 C118.015627,134.328123 118.489581,134.125 119.03125,134.125 L123.5,134.125 L125.125,132.5 L131.625,132.5 L133.25,134.125 L137.71875,134.125 Z M128.375,149.15625 C129.932299,149.15625 131.269526,148.597662 132.386719,147.480469 C133.503912,146.363276 134.0625,145.026049 134.0625,143.46875 C134.0625,141.911451 133.503912,140.574224 132.386719,139.457031 C131.269526,138.339838 129.932299,137.78125 128.375,137.78125 C126.817701,137.78125 125.480474,138.339838 124.363281,139.457031 C123.246088,140.574224 122.6875,141.911451 122.6875,143.46875 C122.6875,145.026049 123.246088,146.363276 124.363281,147.480469 C125.480474,148.597662 126.817701,149.15625 128.375,149.15625 Z" id=""></path>
                </g>
            </g>
        </g>
    </g>
</svg>