<svg xmlns="http://www.w3.org/2000/svg" width="18" height="18" viewBox="0 0 18 18">
    <path fill="#FFF" fill-rule="evenodd" d="M16.5 9c0 1.063.5 1.781 1.5 2.156-.25 1-.625 1.89-1.125 2.672-.25-.125-.562-.187-.938-.187-.656 0-1.203.218-1.64.656-.75.75-.906 1.61-.469 2.578-.781.5-1.672.875-2.672 1.125-.375-1-1.093-1.5-2.156-1.5-1.063 0-1.781.5-2.156 1.5-1-.25-1.89-.625-2.672-1.125.437-.969.281-1.828-.469-2.578-.437-.438-.984-.656-1.64-.656-.376 0-.688.062-.938.187-.5-.781-.875-1.672-1.125-2.672C1 10.781 1.5 10.063 1.5 9 1.5 7.937 1 7.219 0 6.844c.25-1 .625-1.89 1.125-2.672.25.125.562.187.938.187.656 0 1.203-.218 1.64-.656.75-.75.906-1.61.469-2.578C4.953.625 5.844.25 6.844 0 7.219 1 7.937 1.5 9 1.5c1.063 0 1.781-.5 2.156-1.5 1 .25 1.89.625 2.672 1.125-.437.969-.281 1.828.469 2.578.437.438.984.656 1.64.656.376 0 .688-.062.938-.187.5.781.875 1.672 1.125 2.672-1 .375-1.5 1.093-1.5 2.156zm-7.453 3.75c1.031 0 1.914-.367 2.648-1.102.735-.734 1.102-1.617 1.102-2.648 0-1.031-.367-1.914-1.102-2.648-.734-.735-1.617-1.102-2.648-1.102-1.031 0-1.914.367-2.649 1.102C5.664 7.086 5.297 7.969 5.297 9c0 1.031.367 1.914 1.101 2.648.735.735 1.618 1.102 2.649 1.102z"/>
</svg>
