<?xml version="1.0" encoding="UTF-8"?>
<svg width="14px" height="15px" viewBox="0 0 14 15" version="1.1" xmlns="http://www.w3.org/2000/svg" xmlns:xlink="http://www.w3.org/1999/xlink">
    <!-- Generator: Sketch 46.2 (44496) - http://www.bohemiancoding.com/sketch -->
    <title>ion-ios-telephone - Ionicons</title>
    <desc>Created with Sketch.</desc>
    <defs></defs>
    <g id="web-design" stroke="none" stroke-width="1" fill="none" fill-rule="evenodd">
        <g id="kontak" transform="translate(-181.000000, -773.000000)" fill="#404040">
            <g id="Group-5" transform="translate(179.000000, 654.000000)">
                <g id="Group-3" transform="translate(1.000000, 44.000000)">
                    <g id="Group" transform="translate(1.000000, 72.000000)">
                        <path d="M13.125,13.625 C13.9062539,14.4062539 13.9062539,15.2656203 13.125,16.203125 C12.8124984,16.5677102 12.5065119,16.8411449 12.2070312,17.0234375 C11.9075506,17.2057301 11.6601572,17.3098957 11.4648437,17.3359375 C11.2695303,17.3619793 10.9895852,17.375 10.625,17.375 C9.60936992,17.375 8.39844453,16.8541719 6.9921875,15.8125 C5.87239023,15.0052043 4.85677539,14.1328172 3.9453125,13.1953125 C2.77343164,11.971348 1.74479609,10.5781328 0.859375,9.015625 C0.0781210938,7.55728438 -0.156251562,6.35937969 0.15625,5.421875 C0.312500781,4.92708086 0.677080469,4.49739766 1.25,4.1328125 L1.2890625,4.09375 C1.75781484,3.78124844 2.17447734,3.625 2.5390625,3.625 C3.03385664,3.625 3.47656055,3.85937266 3.8671875,4.328125 L3.90625,4.3671875 C4.50521133,5.14844141 4.92187383,5.76041445 5.15625,6.203125 C5.54687695,7.0104207 5.53385625,7.70051797 5.1171875,8.2734375 C4.80468594,8.69010625 4.6484375,8.98958242 4.6484375,9.171875 C4.6484375,9.25000039 4.81770664,9.48437305 5.15625,9.875 L5.1953125,9.9140625 C5.82031562,10.617191 6.15885391,10.9947914 6.2109375,11.046875 C6.2369793,11.046875 6.2630207,11.0598957 6.2890625,11.0859375 L6.4453125,11.2421875 C6.96614844,11.7630234 7.34374883,12.1276031 7.578125,12.3359375 L7.6171875,12.375 C7.85156367,12.5833344 8.00781211,12.6875 8.0859375,12.6875 C8.21614648,12.6875 8.59374688,12.4921895 9.21875,12.1015625 C9.40104258,11.9713535 9.62239453,11.90625 9.8828125,11.90625 C10.3515648,11.90625 10.9179654,12.1015605 11.5820312,12.4921875 C12.2460971,12.8828145 12.7604148,13.2604148 13.125,13.625 Z" id="ion-ios-telephone---Ionicons"></path>
                    </g>
                </g>
            </g>
        </g>
    </g>
</svg>