<?xml version="1.0" encoding="UTF-8"?>
<svg width="17px" height="17px" viewBox="0 0 17 17" version="1.1" xmlns="http://www.w3.org/2000/svg" xmlns:xlink="http://www.w3.org/1999/xlink">
    <!-- Generator: Sketch 46.2 (44496) - http://www.bohemiancoding.com/sketch -->
    <title></title>
    <desc>Created with Sketch.</desc>
    <defs></defs>
    <g id="web-design" stroke="none" stroke-width="1" fill="none" fill-rule="evenodd">
        <g id="Event-Archieve" transform="translate(-360.000000, -1057.000000)" fill="#404040">
            <g id="items" transform="translate(181.000000, 242.000000)">
                <g id="item-copy-2" transform="translate(9.000000, 810.000000)">
                    <g id="txt-title" transform="translate(170.000000, 0.000000)">
                        <path d="M10.359375,17.796875 L11.375,18.5 C11.2968746,18.890627 11.062502,19.1966135 10.671875,19.4179688 C10.281248,19.639324 9.83854414,19.75 9.34375,19.75 L5.828125,19.75 C5.64583242,19.75 5.47656328,19.7890621 5.3203125,19.8671875 L3.25,21.625 L3.25,19.75 L2.625,19.75 C2.10416406,19.75 1.66146016,19.6002619 1.296875,19.3007812 C0.932289844,19.0013006 0.75,18.6171898 0.75,18.1484375 L0.75,13.109375 C0.75,12.6145809 0.925779492,12.1979184 1.27734375,11.859375 C1.62890801,11.5208316 2.05208086,11.3515625 2.546875,11.3515625 L2.625,11.3515625 L2.625,15.296875 C2.625,15.9479199 2.87239336,16.4947895 3.3671875,16.9375 C3.86198164,17.3802105 4.44791328,17.6015625 5.125,17.6015625 L9.6953125,17.6015625 C9.92968867,17.6015625 10.1510406,17.666666 10.359375,17.796875 Z M14.5390625,5.375 C15.2161492,5.375 15.7955705,5.6028623 16.2773438,6.05859375 C16.759117,6.5143252 17,7.06770508 17,7.71875 L17,14.28125 C17,14.9322949 16.759117,15.4856748 16.2773438,15.9414063 C15.7955705,16.3971377 15.2161492,16.625 14.5390625,16.625 L13.875,16.625 L13.875,19.125 L10.9453125,16.78125 C10.8411453,16.6770828 10.6197934,16.625 10.28125,16.625 L6.3359375,16.625 C5.65885078,16.625 5.07942949,16.3971377 4.59765625,15.9414063 C4.11588301,15.4856748 3.875,14.9322949 3.875,14.28125 L3.875,7.71875 C3.875,7.04166328 4.07031055,6.48177305 4.4609375,6.0390625 C4.85156445,5.59635195 5.38541328,5.375 6.0625,5.375 L14.5390625,5.375 Z" id=""></path>
                    </g>
                </g>
            </g>
        </g>
    </g>
</svg>