<?xml version="1.0" encoding="UTF-8"?>
<svg width="20px" height="20px" viewBox="0 0 20 20" version="1.1" xmlns="http://www.w3.org/2000/svg" xmlns:xlink="http://www.w3.org/1999/xlink">
    <!-- Generator: Sketch 46.2 (44496) - http://www.bohemiancoding.com/sketch -->
    <title></title>
    <desc>Created with Sketch.</desc>
    <defs></defs>
    <g id="web-design" stroke="none" stroke-width="1" fill="none" fill-rule="evenodd">
        <g id="Event-Archieve" transform="translate(-794.000000, -974.000000)" fill="#FFFFFF">
            <g id="items" transform="translate(181.000000, 242.000000)">
                <g id="item-copy" transform="translate(9.000000, 528.000000)">
                    <g id="Group-2-Copy-2" transform="translate(596.000000, 196.000000)">
                        <path d="M27.0625,11.1210938 C27.2838553,11.1210938 27.4954417,11.2089835 27.6972656,11.3847656 C27.8990896,11.5605478 28,11.7591135 28,11.9804688 L28,13.1523438 C28,13.373699 27.8990896,13.5657544 27.6972656,13.7285156 C27.4954417,13.8912769 27.2838553,13.9726562 27.0625,13.9726562 L25.4414062,13.9726562 L25.4414062,15.4765625 C25.4414062,15.7109387 25.3795579,15.8997389 25.2558594,16.0429688 C25.1321608,16.1861986 24.9531262,16.2578125 24.71875,16.2578125 L23.546875,16.2578125 C23.3255197,16.2578125 23.1204437,16.1861986 22.9316406,16.0429688 C22.7428376,15.8997389 22.6484375,15.7109387 22.6484375,15.4765625 L22.6484375,13.9726562 L21.2226562,13.9726562 C21.001301,13.9726562 20.7962249,13.8912769 20.6074219,13.7285156 C20.4186188,13.5657544 20.3242188,13.373699 20.3242188,13.1523438 L20.3242188,11.9804688 C20.3242188,11.7591135 20.4186188,11.5605478 20.6074219,11.3847656 C20.7962249,11.2089835 21.001301,11.1210938 21.2226562,11.1210938 L22.6484375,11.1210938 L22.6484375,9.63671875 C22.6484375,9.41536348 22.7428376,9.22981846 22.9316406,9.08007812 C23.1204437,8.93033779 23.3255197,8.85546875 23.546875,8.85546875 L24.71875,8.85546875 C24.9531262,8.85546875 25.1321608,8.93033779 25.2558594,9.08007812 C25.3795579,9.22981846 25.4414062,9.41536348 25.4414062,9.63671875 L25.4414062,11.1210938 L27.0625,11.1210938 Z M21.359375,12.9375 L23.6445312,12.9375 L23.6445312,15.2421875 L24.40625,15.2421875 L24.40625,12.9375 L26.9648438,12.9375 L26.9648438,12.1757812 L24.40625,12.1757812 L24.40625,9.8515625 L23.6445312,9.8515625 L23.6445312,12.1757812 L21.359375,12.1757812 L21.359375,12.9375 Z M18.1953125,18.8164062 C19.0677127,19.4674512 19.666665,20.0957001 19.9921875,20.7011719 C20.31771,21.3066437 20.4869791,22.0781203 20.5,23.015625 C20.5,23.6276072 20.3437516,24.2200492 20.03125,24.7929688 C19.7187484,25.3658883 19.2825549,25.8671854 18.7226562,26.296875 C18.1367158,26.7395855 17.4661496,27.0748687 16.7109375,27.3027344 C15.9557254,27.5306001 15.1354211,27.6445312 14.25,27.6445312 C13.351558,27.6445312 12.518233,27.546876 11.75,27.3515625 C10.981767,27.156249 10.3209663,26.8860694 9.76757812,26.5410156 C9.21418994,26.1959618 8.78125156,25.7825545 8.46875,25.3007812 C8.15624844,24.819008 8,24.2916695 8,23.71875 C8,23.1197887 8.14648291,22.5273467 8.43945312,21.9414062 C8.73242334,21.3554658 9.15234102,20.8346377 9.69921875,20.3789062 C10.1679711,19.9752584 10.7115854,19.6497408 11.3300781,19.4023438 C11.9485708,19.1549467 12.5898404,19.0052086 13.2539062,18.953125 C13.2408854,18.8619787 13.2278646,18.774089 13.2148438,18.6894531 C13.2018229,18.6048173 13.1953125,18.5169275 13.1953125,18.4257812 L13.1953125,18.25 C12.5963512,18.1848955 12.0462265,18.0253919 11.5449219,17.7714844 C11.0436173,17.5175769 10.6171893,17.1888041 10.265625,16.7851562 C9.91406074,16.3815084 9.64062598,15.9127631 9.4453125,15.3789062 C9.24999902,14.8450494 9.15234375,14.2656281 9.15234375,13.640625 C9.15234375,12.9895801 9.29882666,12.3743519 9.59179688,11.7949219 C9.88476709,11.2154919 10.2851537,10.7076845 10.7929688,10.2714844 C11.3007838,9.83528428 11.8899706,9.49023564 12.5605469,9.23632812 C13.2311231,8.98242061 13.9374963,8.85546875 14.6796875,8.85546875 L19.7578125,8.85546875 C19.9791678,8.85546875 20.1712231,8.93359297 20.3339844,9.08984375 C20.4967456,9.24609453 20.578125,9.43489473 20.578125,9.65625 C20.578125,9.76041719 20.5553388,9.86132764 20.5097656,9.95898438 C20.4641925,10.0566411 20.4023441,10.1445309 20.3242188,10.2226562 L19.2109375,11.3945312 C19.1848957,11.420573 19.1555991,11.4466145 19.1230469,11.4726562 C19.0904946,11.498698 19.061198,11.5182291 19.0351562,11.53125 C19.2044279,11.8437516 19.3313798,12.1822898 19.4160156,12.546875 C19.5006515,12.9114602 19.5429688,13.2955709 19.5429688,13.6992188 C19.5429688,14.3242219 19.3899755,14.9231742 19.0839844,15.4960938 C18.7779933,16.0690133 18.3255238,16.5833311 17.7265625,17.0390625 C17.4140609,17.2864596 17.2220056,17.4589839 17.1503906,17.5566406 C17.0787757,17.6542974 17.0364584,17.7421871 17.0234375,17.8203125 C17.0625002,17.8723961 17.1536451,17.9667962 17.296875,18.1035156 C17.4401049,18.2402351 17.7005189,18.4518215 18.078125,18.7382812 L18.1953125,18.8164062 Z M14.875,19.5585938 L15.2070312,19.8515625 L14.7382812,19.8515625 C14.6601559,19.8515625 14.5852868,19.8580729 14.5136719,19.8710938 C14.4420569,19.8841146 14.3671879,19.890625 14.2890625,19.890625 C14.223958,19.890625 14.149089,19.8971354 14.0644531,19.9101562 C13.9798173,19.9231771 13.8984379,19.9296875 13.8203125,19.9296875 C13.1041631,19.9296875 12.4498728,20.0403635 11.8574219,20.2617188 C11.264971,20.483074 10.7571636,20.7727847 10.3339844,21.1308594 C9.91080518,21.4889341 9.5852876,21.8958311 9.35742188,22.3515625 C9.12955615,22.8072939 9.015625,23.2630186 9.015625,23.71875 C9.015625,24.1354187 9.14583203,24.5227847 9.40625,24.8808594 C9.66666797,25.2389341 10.0279925,25.5481758 10.4902344,25.8085938 C10.9524763,26.0690117 11.5058562,26.2708326 12.1503906,26.4140625 C12.7949251,26.5572924 13.4947879,26.6289062 14.25,26.6289062 C15.0703166,26.6289062 15.8027312,26.5247406 16.4472656,26.3164062 C17.0918001,26.1080719 17.6386696,25.8313819 18.0878906,25.4863281 C18.5371116,25.1412743 18.8821603,24.7539084 19.1230469,24.3242188 C19.3639335,23.8945291 19.484375,23.4518252 19.484375,22.9960938 C19.484375,22.2799443 19.3671887,21.6875023 19.1328125,21.21875 C18.8984363,20.7499977 18.3841186,20.2161488 17.5898438,19.6171875 L17.4726562,19.5390625 C17.1080711,19.2656236 16.772788,18.9889337 16.4667969,18.7089844 C16.1608058,18.4290351 16.0078125,18.1653658 16.0078125,17.9179688 C16.0078125,17.5794254 16.0826815,17.2994803 16.2324219,17.078125 C16.3821622,16.8567697 16.6718729,16.5768246 17.1015625,16.2382812 C17.5833357,15.8736961 17.9414051,15.4765646 18.1757812,15.046875 C18.4101574,14.6171854 18.5273438,14.1614607 18.5273438,13.6796875 C18.5273438,13.0807262 18.4101574,12.540367 18.1757812,12.0585938 C17.9414051,11.5768205 17.6158875,11.2187512 17.1992188,10.984375 L16.5742188,10.6132812 L18.5273438,10.6132812 L19.3085938,9.8515625 L14.6796875,9.8515625 C14.0807262,9.8515625 13.5078152,9.95247295 12.9609375,10.1542969 C12.4140598,10.3561208 11.9322937,10.6295556 11.515625,10.9746094 C11.0989563,11.3196632 10.7701835,11.723305 10.5292969,12.1855469 C10.2884103,12.6477888 10.1679688,13.1262996 10.1679688,13.6210938 C10.1679688,14.7148492 10.4999967,15.5937467 11.1640625,16.2578125 C11.8281283,16.9218783 12.7070258,17.2539062 13.8007812,17.2539062 C13.8658857,17.2539062 13.9374996,17.2506511 14.015625,17.2441406 C14.0937504,17.2376302 14.178385,17.234375 14.2695312,17.234375 L14.6210938,17.2148438 L14.4648438,17.5078125 C14.3736975,17.6640633 14.3085939,17.8170565 14.2695312,17.9667969 C14.2304686,18.1165372 14.2109375,18.2565098 14.2109375,18.3867188 C14.2109375,18.6341158 14.2695307,18.8391919 14.3867188,19.0019531 C14.5039068,19.1647144 14.6666656,19.3502594 14.875,19.5585938 Z M14.4453125,20.1445312 L14.484375,20.1445312 C14.7317721,20.1575521 14.9693999,20.1803384 15.1972656,20.2128906 C15.4251313,20.2454429 15.6497385,20.3007809 15.8710938,20.3789062 L15.9101562,20.3984375 L16.3789062,20.7109375 C16.8346377,21.0234391 17.228514,21.3196601 17.5605469,21.5996094 C17.8925798,21.8795587 18.1106766,22.2213521 18.2148438,22.625 C18.2408855,22.7291672 18.2604166,22.8300776 18.2734375,22.9277344 C18.2864584,23.0253911 18.2929688,23.1263016 18.2929688,23.2304688 C18.2929688,23.8945346 18.0358099,24.5520801 17.5214844,25.203125 C17.0071589,25.8541699 15.9101646,26.1796875 14.2304688,26.1796875 C13.2018178,26.1796875 12.3294307,25.8867217 11.6132812,25.3007812 C10.8971318,24.7148408 10.5390625,23.9987021 10.5390625,23.1523438 C10.5390625,22.3320271 10.9264284,21.625654 11.7011719,21.0332031 C12.4759153,20.4407522 13.3906197,20.1445312 14.4453125,20.1445312 Z M15.4609375,21.296875 C15.3046867,21.2578123 15.1451831,21.2252605 14.9824219,21.1992188 C14.8196606,21.173177 14.6536467,21.1601562 14.484375,21.1601562 L14.4453125,21.1601562 C13.6770795,21.1601562 13.0032581,21.358722 12.4238281,21.7558594 C11.8443981,22.1529968 11.5546875,22.6184869 11.5546875,23.1523438 C11.5546875,23.7122424 11.8151016,24.187498 12.3359375,24.578125 C12.8567734,24.968752 13.4882775,25.1640625 14.2304688,25.1640625 C15.5976631,25.1640625 16.447264,24.9459657 16.7792969,24.5097656 C17.1113298,24.0735655 17.2773438,23.6471375 17.2773438,23.2304688 C17.2773438,23.1653643 17.2740886,23.1035159 17.2675781,23.0449219 C17.2610677,22.9863278 17.2513021,22.9309898 17.2382812,22.8789062 C17.1861977,22.657551 17.0299492,22.4459646 16.7695312,22.2441406 C16.5091133,22.0423167 16.1901061,21.8111992 15.8125,21.5507812 C15.7604164,21.5117186 15.7018232,21.4726564 15.6367188,21.4335938 C15.5716143,21.3945311 15.5130211,21.3489586 15.4609375,21.296875 Z M16.3203125,16.21875 C16.1380199,16.4270844 15.9231783,16.586588 15.6757812,16.6972656 C15.4283842,16.8079433 15.1484391,16.8632812 14.8359375,16.8632812 L14.7773438,16.8632812 C14.0091107,16.8502604 13.3320342,16.5312531 12.7460938,15.90625 C12.1601533,15.2812469 11.8085943,14.5195357 11.6914062,13.6210938 C11.6132809,13.0872369 11.6328119,12.589195 11.75,12.1269531 C11.8671881,11.6647112 12.0624986,11.2773453 12.3359375,10.9648438 C12.531251,10.7434885 12.7591133,10.5709642 13.0195312,10.4472656 C13.2799492,10.3235671 13.5598943,10.2617188 13.859375,10.2617188 L13.9179688,10.2617188 C14.6341182,10.2877605 15.2753878,10.6328092 15.8417969,11.296875 C16.408206,11.9609408 16.7565098,12.7747348 16.8867188,13.7382812 C16.9518232,14.2591172 16.9355474,14.7343729 16.8378906,15.1640625 C16.7402339,15.5937521 16.5677096,15.9453111 16.3203125,16.21875 Z M15.5585938,15.5546875 C15.7148445,15.3854158 15.8190102,15.1575535 15.8710938,14.8710938 C15.9231773,14.584634 15.9231773,14.2526061 15.8710938,13.875 C15.7799475,13.1588506 15.5423196,12.5501327 15.1582031,12.0488281 C14.7740866,11.5475235 14.3476586,11.2903646 13.8789062,11.2773438 L13.859375,11.2773438 C13.7031242,11.2773438 13.5631517,11.3066403 13.4394531,11.3652344 C13.3157546,11.4238284 13.2018234,11.5117182 13.0976562,11.6289062 C12.9153637,11.8372406 12.7851566,12.1009099 12.7070312,12.4199219 C12.6289059,12.7389339 12.6223955,13.093748 12.6875,13.484375 C12.7656254,14.1484408 13.0065084,14.7050759 13.4101562,15.1542969 C13.8138041,15.6035179 14.2760391,15.8346354 14.796875,15.8476562 L14.8359375,15.8476562 C14.9921883,15.8476562 15.1321608,15.82487 15.2558594,15.7792969 C15.3795579,15.7337237 15.4804684,15.6588547 15.5585938,15.5546875 Z" id=""></path>
                    </g>
                </g>
            </g>
        </g>
    </g>
</svg>