<?xml version="1.0" encoding="UTF-8"?>
<svg width="13px" height="19px" viewBox="0 0 13 19" version="1.1" xmlns="http://www.w3.org/2000/svg" xmlns:xlink="http://www.w3.org/1999/xlink">
    <!-- Generator: Sketch 46.2 (44496) - http://www.bohemiancoding.com/sketch -->
    <title>ion-android-pin - Ionicons</title>
    <desc>Created with Sketch.</desc>
    <defs></defs>
    <g id="web-design" stroke="none" stroke-width="1" fill="none" fill-rule="evenodd">
        <g id="Event-Archieve" transform="translate(-436.000000, -475.000000)" fill="#D13D1E">
            <g id="items" transform="translate(181.000000, 242.000000)">
                <g id="item">
                    <g id="txt-tempat" transform="translate(179.000000, 187.000000)">
                        <path d="M82.25,46.75 C83.9687586,46.75 85.440098,47.3489523 86.6640625,48.546875 C87.888027,49.7447977 88.5,51.1900957 88.5,52.8828125 C88.5,54.2369859 87.9791719,55.8645738 86.9375,57.765625 C85.8958281,59.6666762 84.8541719,61.2291605 83.8125,62.453125 L82.25,64.25 C82.0677074,64.0677074 81.8398451,63.8138037 81.5664062,63.4882812 C81.2929674,63.1627588 80.7981807,62.5312547 80.0820312,61.59375 C79.3658818,60.6562453 78.7343777,59.7447961 78.1875,58.859375 C77.6406223,57.9739539 77.1393252,56.9713598 76.6835938,55.8515625 C76.2278623,54.7317652 76,53.7421918 76,52.8828125 C76,51.1900957 76.611973,49.7447977 77.8359375,48.546875 C79.059902,47.3489523 80.5312414,46.75 82.25,46.75 Z M82.25,55.0703125 C82.8750031,55.0703125 83.4023416,54.8554709 83.8320312,54.4257812 C84.2617209,53.9960916 84.4765625,53.4817738 84.4765625,52.8828125 C84.4765625,52.2838512 84.2617209,51.7695334 83.8320312,51.3398438 C83.4023416,50.9101541 82.8750031,50.6953125 82.25,50.6953125 C81.6249969,50.6953125 81.0976584,50.9101541 80.6679688,51.3398438 C80.2382791,51.7695334 80.0234375,52.2838512 80.0234375,52.8828125 C80.0234375,53.4817738 80.2382791,53.9960916 80.6679688,54.4257812 C81.0976584,54.8554709 81.6249969,55.0703125 82.25,55.0703125 Z" id="ion-android-pin---Ionicons"></path>
                    </g>
                </g>
            </g>
        </g>
    </g>
</svg>