<?xml version="1.0" encoding="UTF-8"?>
<svg width="20px" height="17px" viewBox="0 0 20 17" version="1.1" xmlns="http://www.w3.org/2000/svg" xmlns:xlink="http://www.w3.org/1999/xlink">
    <!-- Generator: Sketch 46.2 (44496) - http://www.bohemiancoding.com/sketch -->
    <title>social-twitter - simple-line-icons</title>
    <desc>Created with Sketch.</desc>
    <defs></defs>
    <g id="web-design" stroke="none" stroke-width="1" fill="none" fill-rule="evenodd">
        <g id="Event-Archieve" transform="translate(-748.000000, -976.000000)" fill="#FFFFFF">
            <g id="items" transform="translate(181.000000, 242.000000)">
                <g id="item-copy" transform="translate(9.000000, 528.000000)">
                    <g id="Group-2-Copy" transform="translate(550.000000, 196.000000)">
                        <path d="M21.359375,11.3554688 C20.3697867,11.3554688 19.523441,11.694007 18.8203125,12.3710938 C18.117184,13.0481805 17.765625,13.8684848 17.765625,14.8320312 C17.765625,14.9622402 17.7753905,15.0957024 17.7949219,15.2324219 C17.8144532,15.3691413 17.8372395,15.5026035 17.8632812,15.6328125 C17.12109,15.5937498 16.4016962,15.4798187 15.7050781,15.2910156 C15.0084601,15.1022126 14.3444042,14.8515641 13.7128906,14.5390625 C13.0813771,14.2265609 12.4921902,13.8554709 11.9453125,13.4257812 C11.3984348,12.9960916 10.903648,12.5143256 10.4609375,11.9804688 C10.3046867,12.2408867 10.1842452,12.5175767 10.0996094,12.8105469 C10.0149735,13.1035171 9.97265625,13.4127588 9.97265625,13.7382812 C9.97265625,14.3372426 10.1191392,14.8906225 10.4121094,15.3984375 C10.7050796,15.9062525 11.0924455,16.3164047 11.5742188,16.6289062 C11.2747381,16.6289062 10.9882826,16.5898441 10.7148438,16.5117188 C10.4414049,16.4335934 10.1875012,16.3294277 9.953125,16.1992188 L9.953125,16.2382812 C9.953125,17.0846396 10.2265598,17.8268197 10.7734375,18.4648438 C11.3203152,19.1028678 12.0039021,19.4999992 12.8242188,19.65625 C12.6809889,19.6953127 12.5279956,19.7278645 12.3652344,19.7539062 C12.2024731,19.779948 12.0429695,19.7929688 11.8867188,19.7929688 C11.7695307,19.7929688 11.6555995,19.7864584 11.5449219,19.7734375 C11.4342442,19.7604166 11.3203131,19.7408855 11.203125,19.7148438 C11.4375012,20.4049514 11.860674,20.9778623 12.4726562,21.4335938 C13.0846385,21.8893252 13.7812461,22.1236979 14.5625,22.1367188 C13.9505178,22.6054711 13.2636757,22.973306 12.5019531,23.2402344 C11.7402306,23.5071628 10.9427125,23.640625 10.109375,23.640625 C9.95312422,23.640625 9.80664131,23.6341146 9.66992188,23.6210938 C9.53320244,23.6080729 9.39322988,23.5950521 9.25,23.5820312 C10.0442748,24.0768254 10.9068964,24.4609361 11.8378906,24.734375 C12.7688849,25.0078139 13.7421824,25.1445312 14.7578125,25.1445312 C16.3984457,25.1445312 17.8567645,24.8450551 19.1328125,24.2460938 C20.4088605,23.6471324 21.4798134,22.8724006 22.3457031,21.921875 C23.2115929,20.9713494 23.8658832,19.9069069 24.3085938,18.7285156 C24.7513043,17.5501243 24.9726562,16.3880266 24.9726562,15.2421875 L24.9726562,15.0078125 C24.9726562,14.9296871 24.9661459,14.8580732 24.953125,14.7929688 C25.3046893,14.5455717 25.633462,14.2688817 25.9394531,13.9628906 C26.2454442,13.6568995 26.5156238,13.3281268 26.75,12.9765625 C26.4244775,13.1197924 26.0891944,13.2369787 25.7441406,13.328125 C25.3990868,13.4192713 25.050783,13.4843748 24.6992188,13.5234375 C25.0638039,13.3151031 25.3828111,13.0449235 25.65625,12.7128906 C25.9296889,12.3808577 26.1315098,12.0130229 26.2617188,11.609375 C25.9231754,11.8046885 25.5618509,11.9739576 25.1777344,12.1171875 C24.7936179,12.2604174 24.3997416,12.3710934 23.9960938,12.4492188 C23.6575504,12.1106754 23.2636741,11.843751 22.8144531,11.6484375 C22.3652321,11.453124 21.8802109,11.3554688 21.359375,11.3554688 Z M21.359375,10.1054688 C21.9062527,10.1054688 22.430336,10.1901033 22.9316406,10.359375 C23.4329452,10.5286467 23.8984354,10.7695297 24.328125,11.0820312 C24.5625012,11.0169268 24.7903635,10.9388025 25.0117188,10.8476562 C25.233074,10.75651 25.4414053,10.645834 25.6367188,10.515625 C25.7408859,10.4635414 25.8450516,10.4244793 25.9492188,10.3984375 C26.0533859,10.3723957 26.1575516,10.359375 26.2617188,10.359375 C26.4049486,10.359375 26.5449212,10.3821612 26.6816406,10.4277344 C26.8183601,10.4733075 26.9453119,10.5416662 27.0625,10.6328125 C27.2578135,10.7890633 27.3912757,10.987629 27.4628906,11.2285156 C27.5345056,11.4694022 27.5377607,11.7135404 27.4726562,11.9609375 C27.628907,12.0651047 27.7558589,12.2083324 27.8535156,12.390625 C27.9511724,12.5729176 28,12.7682281 28,12.9765625 C28,13.1197924 27.9772138,13.2565098 27.9316406,13.3867188 C27.8860675,13.5169277 27.8242191,13.6341141 27.7460938,13.7382812 C27.5377594,14.0507828 27.3033867,14.3437486 27.0429688,14.6171875 C26.7825508,14.8906264 26.509116,15.1510404 26.2226562,15.3984375 C26.1966145,16.7526109 25.9199245,18.0904882 25.3925781,19.4121094 C24.8652317,20.7337306 24.110031,21.9121042 23.1269531,22.9472656 C22.1438753,23.9824271 20.9459706,24.8157521 19.5332031,25.4472656 C18.1204356,26.0787792 16.5286547,26.3945312 14.7578125,26.3945312 C14.2109348,26.3945312 13.6673204,26.3587243 13.1269531,26.2871094 C12.5865858,26.2154944 12.0559922,26.1048185 11.5351562,25.9550781 C11.0143203,25.8053378 10.5065129,25.6230479 10.0117188,25.4082031 C9.51692461,25.1933583 9.04166895,24.9361994 8.5859375,24.6367188 C8.33854043,24.4934889 8.16601611,24.2819024 8.06835938,24.0019531 C7.97070264,23.7220038 7.96744746,23.4453139 8.05859375,23.171875 C8.14974004,22.9244779 8.30598848,22.722657 8.52734375,22.5664062 C8.74869902,22.4101555 8.98958203,22.3320312 9.25,22.3320312 L9.31835938,22.3320312 C9.33789072,22.3320312 9.36067695,22.3385416 9.38671875,22.3515625 C9.50390684,22.3645834 9.62109316,22.3743489 9.73828125,22.3808594 C9.85546934,22.3873698 9.97916602,22.390625 10.109375,22.390625 C10.3307303,22.390625 10.5553374,22.3776043 10.7832031,22.3515625 C11.0110688,22.3255207 11.235676,22.2864586 11.4570312,22.234375 C11.1315088,21.9609361 10.8450533,21.6451841 10.5976562,21.2871094 C10.3502592,20.9290347 10.1549486,20.5351584 10.0117188,20.1054688 C9.98567695,20.0013016 9.96940107,19.8938808 9.96289062,19.7832031 C9.95638018,19.6725255 9.9661457,19.5651047 9.9921875,19.4609375 C9.58853965,19.0312479 9.2727876,18.5397163 9.04492188,17.9863281 C8.81705615,17.4329399 8.703125,16.8502635 8.703125,16.2382812 L8.703125,16.1992188 C8.703125,16.042968 8.72916641,15.8932299 8.78125,15.75 C8.83333359,15.6067701 8.91145781,15.4765631 9.015625,15.359375 C8.92447871,15.1119779 8.85286484,14.8515639 8.80078125,14.578125 C8.74869766,14.3046861 8.72265625,14.024741 8.72265625,13.7382812 C8.72265625,13.3216125 8.78124941,12.9082052 8.8984375,12.4980469 C9.01562559,12.0878886 9.17838438,11.7005227 9.38671875,11.3359375 C9.49088594,11.1666658 9.6308585,11.0299484 9.80664062,10.9257812 C9.98242275,10.8216141 10.1679678,10.7630209 10.3632812,10.75 C10.3763021,10.7369791 10.392578,10.7304688 10.4121094,10.7304688 L10.4609375,10.7304688 C10.6432301,10.7304688 10.8190096,10.7695309 10.9882812,10.8476562 C11.1575529,10.9257816 11.3007807,11.0364576 11.4179688,11.1796875 C12.0690137,11.9609414 12.8372352,12.6119766 13.7226562,13.1328125 C14.6080773,13.6536484 15.5585887,14.0117178 16.5742188,14.2070312 C16.6523441,13.6341117 16.8313788,13.0970077 17.1113281,12.5957031 C17.3912774,12.0943985 17.7428364,11.658205 18.1660156,11.2871094 C18.5891948,10.9160138 19.074216,10.6263031 19.6210938,10.4179688 C20.1679715,10.2096344 20.7473928,10.1054688 21.359375,10.1054688 Z" id="social-twitter---simple-line-icons"></path>
                    </g>
                </g>
            </g>
        </g>
    </g>
</svg>