<?xml version="1.0" encoding="UTF-8"?>
<svg width="11px" height="20px" viewBox="0 0 11 20" version="1.1" xmlns="http://www.w3.org/2000/svg" xmlns:xlink="http://www.w3.org/1999/xlink">
    <!-- Generator: Sketch 46.2 (44496) - http://www.bohemiancoding.com/sketch -->
    <title>social-facebook - simple-line-icons</title>
    <desc>Created with Sketch.</desc>
    <defs></defs>
    <g id="web-design" stroke="none" stroke-width="1" fill="none" fill-rule="evenodd">
        <g id="Event-Archieve" transform="translate(-707.000000, -974.000000)" fill="#FFFFFF">
            <g id="items" transform="translate(181.000000, 242.000000)">
                <g id="item-copy" transform="translate(9.000000, 528.000000)">
                    <g id="Group-2" transform="translate(505.000000, 196.000000)">
                        <path d="M19.3671875,9.8125 C19.1067695,9.8125 18.6022173,9.94596221 17.8535156,10.2128906 C17.104814,10.479819 16.7304688,11.2512957 16.7304688,12.5273438 L16.7304688,15.4375 L14.2304688,15.4375 L14.2304688,17.3125 L16.7304688,17.3125 L16.7304688,26.6875 L18.6054688,26.6875 L18.6054688,17.3125 L21.3203125,17.3125 L21.7695312,15.4375 L18.6054688,15.4375 L18.6054688,12.46875 L18.7128906,12.0878906 C18.7845056,11.8339831 19.0416645,11.7070312 19.484375,11.7070312 L21.1054688,11.7070312 L21.1054688,9.83203125 L19.484375,9.83203125 L19.4550781,9.82226562 C19.4355468,9.81575518 19.4062502,9.8125 19.3671875,9.8125 Z M19.3671875,8.5625 C19.3932293,8.5625 19.4192707,8.56575518 19.4453125,8.57226562 C19.4713543,8.57877607 19.4973957,8.58203125 19.5234375,8.58203125 L21.125,8.58203125 C21.4635434,8.58203125 21.753254,8.70247275 21.9941406,8.94335938 C22.2350272,9.184246 22.3554688,9.48046699 22.3554688,9.83203125 L22.3554688,11.7070312 C22.3554688,12.0455746 22.2317721,12.3385404 21.984375,12.5859375 C21.7369779,12.8333346 21.4440121,12.9570312 21.1054688,12.9570312 L19.8554688,12.9570312 L19.8554688,14.1875 L21.7695312,14.1875 C21.9648447,14.1875 22.1503897,14.2298173 22.3261719,14.3144531 C22.501954,14.399089 22.6484369,14.5260408 22.765625,14.6953125 C22.8828131,14.8515633 22.9609373,15.0240876 23,15.2128906 C23.0390627,15.4016937 23.026042,15.593749 22.9609375,15.7890625 L22.53125,17.6640625 C22.4531246,17.9244805 22.3033865,18.1393221 22.0820312,18.3085938 C21.860676,18.4778654 21.6067723,18.5625 21.3203125,18.5625 L19.8554688,18.5625 L19.8554688,26.6679688 C19.8554688,27.019533 19.7317721,27.315754 19.484375,27.5566406 C19.2369779,27.7975272 18.9440121,27.9179688 18.6054688,27.9179688 L16.7304688,27.9179688 C16.3789045,27.9179688 16.0826835,27.7975272 15.8417969,27.5566406 C15.6009103,27.315754 15.4804688,27.019533 15.4804688,26.6679688 L15.4804688,18.5625 L14.2304688,18.5625 C13.8919254,18.5625 13.5989596,18.4388033 13.3515625,18.1914062 C13.1041654,17.9440092 12.9804688,17.6510434 12.9804688,17.3125 L12.9804688,15.4375 C12.9804688,15.2682283 13.0130205,15.1087247 13.078125,14.9589844 C13.1432295,14.809244 13.2343744,14.6757818 13.3515625,14.5585938 C13.4687506,14.4414057 13.6022128,14.3502607 13.7519531,14.2851562 C13.9016935,14.2200518 14.0611971,14.1875 14.2304688,14.1875 L15.4804688,14.1875 L15.4804688,12.5273438 C15.4804688,11.5637973 15.6692689,10.818362 16.046875,10.2910156 C16.4244811,9.76366924 16.8085918,9.38281367 17.1992188,9.1484375 C17.6158875,8.90104043 18.0260396,8.74153682 18.4296875,8.66992188 C18.8333354,8.59830693 19.1458322,8.5625 19.3671875,8.5625 Z" id="social-facebook---simple-line-icons"></path>
                    </g>
                </g>
            </g>
        </g>
    </g>
</svg>