<?xml version="1.0" encoding="UTF-8"?>
<svg width="35px" height="35px" viewBox="0 0 35 35" version="1.1" xmlns="http://www.w3.org/2000/svg" xmlns:xlink="http://www.w3.org/1999/xlink">
    <!-- Generator: Sketch 46.2 (44496) - http://www.bohemiancoding.com/sketch -->
    <title>001-youtube-symbol</title>
    <desc>Created with Sketch.</desc>
    <defs></defs>
    <g id="web-design" stroke="none" stroke-width="1" fill="none" fill-rule="evenodd">
        <g id="home-biru" transform="translate(-660.000000, -2453.000000)" fill-rule="nonzero" fill="#FFFFFF">
            <g id="footer-content" transform="translate(0.000000, 2319.000000)">
                <g id="Group-10" transform="translate(550.000000, 134.000000)">
                    <g id="001-youtube-symbol" transform="translate(110.000000, 0.000000)">
                        <path d="M14.2746429,21.2810714 C16.8939286,19.9228571 19.4903571,18.5771429 22.1107143,17.2182143 C19.4825,15.8467857 16.8867857,14.4932143 14.2746429,13.13 C14.2746429,15.8564286 14.2746429,18.555 14.2746429,21.2810714 Z" id="Shape"></path>
                        <path d="M17.4553571,0 C7.81535714,0 0,7.815 0,17.4553571 C0,27.0957143 7.81535714,34.9107143 17.4553571,34.9107143 C27.0953571,34.9107143 34.9107143,27.0957143 34.9107143,17.4553571 C34.9107143,7.815 27.0953571,0 17.4553571,0 Z M29.3485714,23.2817857 C29.0464286,24.5925 27.9742857,25.5592857 26.6839286,25.7032143 C23.6278571,26.045 20.535,26.0467857 17.4546429,26.045 C14.3742857,26.0467857 11.2807143,26.045 8.22392857,25.7032143 C6.93357143,25.5592857 5.86214286,24.5925 5.56071429,23.2817857 C5.13107143,21.4146429 5.13107143,19.3771429 5.13107143,17.4553571 C5.13107143,15.5335714 5.13607143,13.4953571 5.56571429,11.6289286 C5.86714286,10.3182143 6.93857143,9.35107143 8.22892857,9.20678571 C11.2857143,8.86535714 14.3792857,8.86357143 17.4596429,8.86535714 C20.5392857,8.86357143 23.6328571,8.86535714 26.6885714,9.20678571 C27.9796429,9.35107143 29.0517857,10.3178571 29.3532143,11.6289286 C29.7828571,13.4957143 29.7792857,15.5335714 29.7792857,17.4553571 C29.7792857,19.3771429 29.7782143,21.415 29.3485714,23.2817857 Z" id="Shape"></path>
                    </g>
                </g>
            </g>
        </g>
    </g>
</svg>