<?xml version="1.0" encoding="UTF-8"?>
<svg width="34px" height="34px" viewBox="0 0 34 34" version="1.1" xmlns="http://www.w3.org/2000/svg" xmlns:xlink="http://www.w3.org/1999/xlink">
    <!-- Generator: Sketch 46.2 (44496) - http://www.bohemiancoding.com/sketch -->
    <title>Group 3</title>
    <desc>Created with Sketch.</desc>
    <defs></defs>
    <g id="web-design" stroke="none" stroke-width="1" fill="none" fill-rule="evenodd">
        <g id="video" transform="translate(-570.000000, -1015.000000)">
            <g id="Group-5" transform="translate(572.000000, 1017.000000)">
                <g id="Group-3">
                    <path d="M15,0 C6.71572875,0 0,6.71572875 0,15 C0,23.2842712 6.71572875,30 15,30 C17.1045325,30 19.1078374,29.5665931 20.925528,28.784166 M24.2902446,26.7775141 C25.2466936,26.0220234 26.108918,25.152512 26.8564038,24.1894939 M28.4977127,21.5508942 C28.9739115,20.5715359 29.3466611,19.5325857 29.6017502,18.4482549 M30,15 C30,14.6047452 29.9847124,14.213061 29.9546963,13.8255064 C29.8335009,12.2606877 29.4721889,10.7631937 28.9075588,9.36982306 M26.8214717,5.76567638 C24.7518916,3.12001256 21.8134886,1.18679329 18.4354989,0.395254855" id="Oval-4" stroke="#404040" stroke-width="4"></path>
                    <circle id="Oval-4-Copy" fill="#404040" cx="15" cy="15" r="5.52631579"></circle>
                </g>
            </g>
        </g>
    </g>
</svg>