<?xml version="1.0" encoding="UTF-8"?>
<svg width="18px" height="30px" viewBox="0 0 18 30" version="1.1" xmlns="http://www.w3.org/2000/svg" xmlns:xlink="http://www.w3.org/1999/xlink">
    <!-- Generator: Sketch 46.2 (44496) - http://www.bohemiancoding.com/sketch -->
    <title>ion-chevron-right - Ionicons</title>
    <desc>Created with Sketch.</desc>
    <defs></defs>
    <g id="web-design" stroke="none" stroke-width="1" fill="none" fill-rule="evenodd">
        <g id="video-single" transform="translate(-863.000000, -2631.000000)" fill="#D13D1E">
            <g id="Group-9" transform="translate(180.000000, 863.000000)">
                <g id="pagination" transform="translate(1.000000, 1766.000000)">
                    <g id="Group-2" transform="translate(536.000000, 0.000000)">
                        <path d="M157.957031,16.625 L147.193359,5.41015625 C146.849608,5.06640453 146.849608,4.72265797 147.193359,4.37890625 L149.126953,2.4453125 C149.513674,2.10156078 149.85742,2.08007662 150.158203,2.38085938 L163.306641,16.109375 C163.435548,16.2382819 163.5,16.4101552 163.5,16.625 C163.5,16.8398448 163.435548,17.0117181 163.306641,17.140625 L150.158203,30.8691406 C149.814451,31.2128923 149.470705,31.2128923 149.126953,30.8691406 L147.193359,28.8710937 C146.849608,28.527342 146.849608,28.1835955 147.193359,27.8398437 L157.957031,16.625 Z" id="ion-chevron-right---Ionicons"></path>
                    </g>
                </g>
            </g>
        </g>
    </g>
</svg>