<?xml version="1.0" encoding="UTF-8"?>
<svg width="25px" height="17px" viewBox="0 0 25 17" version="1.1" xmlns="http://www.w3.org/2000/svg" xmlns:xlink="http://www.w3.org/1999/xlink">
    <!-- Generator: Sketch 46.2 (44496) - http://www.bohemiancoding.com/sketch -->
    <title>ion-android-download - Ionicons</title>
    <desc>Created with Sketch.</desc>
    <defs></defs>
    <g id="web-design" stroke="none" stroke-width="1" fill="none" fill-rule="evenodd">
        <g id="video-single" transform="translate(-214.000000, -2511.000000)" fill="#C4471D">
            <g id="Group-9" transform="translate(180.000000, 863.000000)">
                <g id="Group-8" transform="translate(32.000000, 1594.000000)">
                    <g id="Group-4" transform="translate(2.000000, 49.000000)">
                        <path d="M19.6523438,11.2695312 C20.9726629,11.3372399 22.0898392,11.8535108 23.0039062,12.8183594 C23.9179733,13.7832079 24.375,14.9427016 24.375,16.296875 C24.375,17.6849028 23.875656,18.8782502 22.8769531,19.8769531 C21.8782502,20.875656 20.6849028,21.375 19.296875,21.375 L6.09375,21.375 C4.4010332,21.375 2.96224551,20.782558 1.77734375,19.5976562 C0.592441992,18.4127545 0,16.9739668 0,15.28125 C0,13.7239505 0.524734336,12.3697974 1.57421875,11.21875 C2.62370316,10.0677026 3.91014863,9.40755293 5.43359375,9.23828125 C6.07682613,7.98567082 6.99934295,6.98698289 8.20117188,6.2421875 C9.4030008,5.49739211 10.7317636,5.125 12.1875,5.125 C14.0156341,5.125 15.623691,5.70897854 17.0117188,6.87695312 C18.3997465,8.04492771 19.2799461,9.50910578 19.6523438,11.2695312 Z M10.5625,13.859375 L7.109375,13.859375 L12.1875,18.9375 L17.265625,13.859375 L13.8125,13.859375 L13.8125,10 L10.5625,10 L10.5625,13.859375 Z" id="ion-android-download---Ionicons"></path>
                    </g>
                </g>
            </g>
        </g>
    </g>
</svg>