<?xml version="1.0" encoding="UTF-8"?>
<svg width="18px" height="18px" viewBox="0 0 18 18" version="1.1" xmlns="http://www.w3.org/2000/svg" xmlns:xlink="http://www.w3.org/1999/xlink">
    <!-- Generator: Sketch 46.2 (44496) - http://www.bohemiancoding.com/sketch -->
    <title></title>
    <desc>Created with Sketch.</desc>
    <defs></defs>
    <g id="Symbols-mnews" stroke="none" stroke-width="1" fill="none" fill-rule="evenodd">
        <g id="sahabat/header-desktop-logged" transform="translate(-1103.000000, -29.000000)" fill="#FFFFFF">
            <g id="Group" transform="translate(1025.000000, 26.000000)">
                <path d="M94.5,12 C94.5,13.0625053 94.999995,13.7812481 96,14.15625 C95.7499988,15.156255 95.3750025,16.0468711 94.875,16.828125 C94.6249988,16.7031244 94.3125019,16.640625 93.9375,16.640625 C93.2812467,16.640625 92.7343772,16.8593728 92.296875,17.296875 C91.5468712,18.0468787 91.3906228,18.9062452 91.828125,19.875 C91.0468711,20.3750025 90.156255,20.7499987 89.15625,21 C88.7812481,19.999995 88.0625053,19.5 87,19.5 C85.9374947,19.5 85.2187519,19.999995 84.84375,21 C83.843745,20.7499987 82.9531289,20.3750025 82.171875,19.875 C82.6093772,18.9062452 82.4531288,18.0468787 81.703125,17.296875 C81.2656228,16.8593728 80.7187533,16.640625 80.0625,16.640625 C79.6874981,16.640625 79.3750012,16.7031244 79.125,16.828125 C78.6249975,16.0468711 78.2500012,15.156255 78,14.15625 C79.000005,13.7812481 79.5,13.0625053 79.5,12 C79.5,10.9374947 79.000005,10.2187519 78,9.84375 C78.2500012,8.843745 78.6249975,7.95312891 79.125,7.171875 C79.3750012,7.29687562 79.6874981,7.359375 80.0625,7.359375 C80.7187533,7.359375 81.2656228,7.14062719 81.703125,6.703125 C82.4531288,5.95312125 82.6093772,5.09375484 82.171875,4.125 C82.9531289,3.6249975 83.843745,3.25000125 84.84375,3 C85.2187519,4.000005 85.9374947,4.5 87,4.5 C88.0625053,4.5 88.7812481,4.000005 89.15625,3 C90.156255,3.25000125 91.0468711,3.6249975 91.828125,4.125 C91.3906228,5.09375484 91.5468712,5.95312125 92.296875,6.703125 C92.7343772,7.14062719 93.2812467,7.359375 93.9375,7.359375 C94.3125019,7.359375 94.6249988,7.29687562 94.875,7.171875 C95.3750025,7.95312891 95.7499988,8.843745 96,9.84375 C94.999995,10.2187519 94.5,10.9374947 94.5,12 Z M87.046875,15.75 C88.0781302,15.75 88.9609338,15.3828162 89.6953125,14.6484375 C90.4296912,13.9140588 90.796875,13.0312552 90.796875,12 C90.796875,10.9687448 90.4296912,10.0859412 89.6953125,9.3515625 C88.9609338,8.61718383 88.0781302,8.25 87.046875,8.25 C86.0156198,8.25 85.1328162,8.61718383 84.3984375,9.3515625 C83.6640588,10.0859412 83.296875,10.9687448 83.296875,12 C83.296875,13.0312552 83.6640588,13.9140588 84.3984375,14.6484375 C85.1328162,15.3828162 86.0156198,15.75 87.046875,15.75 Z" id=""></path>
            </g>
        </g>
    </g>
</svg>