<?xml version="1.0" encoding="UTF-8"?>
<svg width="18px" height="13px" viewBox="0 0 18 13" version="1.1" xmlns="http://www.w3.org/2000/svg" xmlns:xlink="http://www.w3.org/1999/xlink">
    <!-- Generator: Sketch 46.2 (44496) - http://www.bohemiancoding.com/sketch -->
    <title>ion-android-people - Ionicons</title>
    <desc>Created with Sketch.</desc>
    <defs></defs>
    <g id="Symbols" stroke="none" stroke-width="1" fill="none" fill-rule="evenodd">
        <g id="sahabat/forum-mini-blue" transform="translate(-23.000000, -396.000000)" fill="#878787">
            <g id="forum-mini">
                <g id="Group-8" transform="translate(23.000000, 392.000000)">
                    <path d="M11.9140625,9.5625 C11.2630176,9.5625 10.7031273,9.3346377 10.234375,8.87890625 C9.76562266,8.4231748 9.53125,7.86979492 9.53125,7.21875 C9.53125,6.56770508 9.76562266,6.0143252 10.234375,5.55859375 C10.7031273,5.1028623 11.2630176,4.875 11.9140625,4.875 C12.5911492,4.875 13.1640602,5.1028623 13.6328125,5.55859375 C14.1015648,6.0143252 14.3359375,6.56770508 14.3359375,7.21875 C14.3359375,7.86979492 14.1015648,8.4231748 13.6328125,8.87890625 C13.1640602,9.3346377 12.5911492,9.5625 11.9140625,9.5625 Z M5.5859375,9.5625 C4.90885078,9.5625 4.33593984,9.3346377 3.8671875,8.87890625 C3.39843516,8.4231748 3.1640625,7.86979492 3.1640625,7.21875 C3.1640625,6.56770508 3.39843516,6.0143252 3.8671875,5.55859375 C4.33593984,5.1028623 4.90885078,4.875 5.5859375,4.875 C6.23698242,4.875 6.79687266,5.1028623 7.265625,5.55859375 C7.73437734,6.0143252 7.96875,6.56770508 7.96875,7.21875 C7.96875,7.86979492 7.73437734,8.4231748 7.265625,8.87890625 C6.79687266,9.3346377 6.23698242,9.5625 5.5859375,9.5625 Z M5.5859375,11.28125 C6.75781836,11.28125 7.99478516,11.5286434 9.296875,12.0234375 C10.5989648,12.5182316 11.25,13.1822875 11.25,14.015625 L11.25,16.125 L0,16.125 L0,14.015625 C0,13.1822875 0.638014453,12.5182316 1.9140625,12.0234375 C3.19011055,11.5286434 4.41405664,11.28125 5.5859375,11.28125 Z M11.9140625,11.7109375 C13.2161523,11.7109375 14.4726502,11.8932273 15.6835938,12.2578125 C16.8945373,12.6223977 17.5,13.2083293 17.5,14.015625 L17.5,16.125 L12.5,16.125 L12.5,14.015625 C12.5,13.4687473 12.4088551,13.0455744 12.2265625,12.7460938 C12.0442699,12.4466131 11.7187523,12.1145852 11.25,11.75 C11.4322926,11.7239582 11.6536445,11.7109375 11.9140625,11.7109375 Z" id="ion-android-people---Ionicons"></path>
                </g>
            </g>
        </g>
    </g>
</svg>