<?xml version="1.0" encoding="UTF-8"?>
<svg width="15px" height="15px" viewBox="0 0 15 15" version="1.1" xmlns="http://www.w3.org/2000/svg" xmlns:xlink="http://www.w3.org/1999/xlink">
    <!-- Generator: Sketch 46.2 (44496) - http://www.bohemiancoding.com/sketch -->
    <title></title>
    <desc>Created with Sketch.</desc>
    <defs></defs>
    <g id="web-design" stroke="none" stroke-width="1" fill="none" fill-rule="evenodd">
        <g id="video-single" transform="translate(-1095.000000, -1059.000000)" fill="#939393">
            <g id="widgets" transform="translate(899.000000, 851.000000)">
                <g id="widget-search" transform="translate(0.000000, 162.000000)">
                    <path d="M206.9375,55.140625 L206.78125,55.4140625 L211,59.671875 L209.671875,61 L205.453125,56.7421875 L205.179688,56.9375 C204.138016,57.5885449 203.057297,57.9140625 201.9375,57.9140625 C200.296867,57.9140625 198.897141,57.3281309 197.738281,56.15625 C196.579421,54.9843691 196,53.5781332 196,51.9375 C196,50.2968668 196.579421,48.8971412 197.738281,47.7382812 C198.897141,46.5794213 200.296867,46 201.9375,46 C203.578133,46 204.977859,46.5794213 206.136719,47.7382812 C207.295579,48.8971412 207.875,50.2968668 207.875,51.9375 C207.875,53.0833391 207.562503,54.1510367 206.9375,55.140625 Z M205.257812,48.6171875 C204.34635,47.7057246 203.23959,47.25 201.9375,47.25 C200.63541,47.25 199.52865,47.7057246 198.617188,48.6171875 C197.705725,49.5286504 197.25,50.6354102 197.25,51.9375 C197.25,53.2395898 197.705725,54.3463496 198.617188,55.2578125 C199.52865,56.1692754 200.63541,56.625 201.9375,56.625 C203.23959,56.625 204.34635,56.1692754 205.257812,55.2578125 C206.195317,54.3203078 206.664062,53.213548 206.664062,51.9375 C206.664062,50.661452 206.195317,49.5546922 205.257812,48.6171875 Z" id=""></path>
                </g>
            </g>
        </g>
    </g>
</svg>