<?xml version="1.0" encoding="UTF-8"?>
<svg width="18px" height="19px" viewBox="0 0 18 19" version="1.1" xmlns="http://www.w3.org/2000/svg" xmlns:xlink="http://www.w3.org/1999/xlink">
    <!-- Generator: Sketch 46.2 (44496) - http://www.bohemiancoding.com/sketch -->
    <title></title>
    <desc>Created with Sketch.</desc>
    <defs></defs>
    <g id="web-design" stroke="none" stroke-width="1" fill="none" fill-rule="evenodd">
        <g id="video-single" transform="translate(-392.000000, -266.000000)" fill="#464646">
            <g id="Group-5" transform="translate(179.000000, 231.000000)">
                <g id="tags" transform="translate(213.000000, 34.000000)">
                    <path d="M2.84833591,3.23888144 L2.8125,3.2734375 C2.82428378,3.26165372 2.83622752,3.25013655 2.8483312,3.23888598 L2.84833591,3.23888144 Z M2.84833591,3.23888144 L3.90625,2.21875 C4.21875156,1.90624844 4.57031055,1.75 4.9609375,1.75 L5.1171875,1.75 L8.6328125,1.90625 C8.99739766,1.90625 9.34895664,2.04947773 9.6875,2.3359375 L9.7265625,2.3359375 L9.765625,2.375 L17.1875,9.8359375 C17.3958344,10.0442719 17.5,10.2981756 17.5,10.5976562 C17.5,10.8971369 17.3958344,11.1510406 17.1875,11.359375 L16.0546875,12.4921875 C16.2630219,12.2838531 16.3671875,12.0299494 16.3671875,11.7304688 C16.3671875,11.4309881 16.2630219,11.1770844 16.0546875,10.96875 L8.6328125,3.5078125 L8.59375,3.46875 L8.5546875,3.46875 C8.19010234,3.15624844 7.83854336,3 7.5,3 L3.984375,2.8828125 L3.828125,2.8828125 C3.4303103,2.8828125 3.10371532,3.00150253 2.8483312,3.23888598 L2.84833591,3.23888144 Z M15.46875,11.515625 C15.6770844,11.7239594 15.78125,11.9843734 15.78125,12.296875 C15.78125,12.6093766 15.6770844,12.8697906 15.46875,13.078125 L11.25,17.3359375 L11.25,17.296875 L10.234375,18.3515625 L9.6484375,18.9375 C9.20572695,19.3802105 8.72396094,19.3932312 8.203125,18.9765625 L8.0859375,18.859375 L0.8203125,11.515625 L0.625,11.3203125 C0.390623828,11.0598945 0.260416797,10.7734391 0.234375,10.4609375 L0.234375,10.3828125 L0,6.9453125 L0,6.7890625 C0,6.34635195 0.156248438,5.96875156 0.46875,5.65625 L2.1875,3.8984375 L2.265625,3.8203125 C2.55208477,3.58593633 2.89062305,3.46875 3.28125,3.46875 L3.4375,3.46875 L6.953125,3.5859375 C7.31771016,3.5859375 7.66926914,3.72916523 8.0078125,4.015625 L8.0859375,4.0546875 L15.46875,11.515625 Z M3.0859375,5.96875 C2.53905977,6.33333516 2.265625,6.81510117 2.265625,7.4140625 C2.265625,7.88281484 2.42838379,8.27994629 2.75390625,8.60546875 C3.07942871,8.93099121 3.47656016,9.09375 3.9453125,9.09375 C4.54427383,9.09375 5.02603984,8.82031523 5.390625,8.2734375 C5.57291758,7.96093594 5.6640625,7.67448047 5.6640625,7.4140625 C5.6640625,6.94531016 5.49479336,6.54166836 5.15625,6.203125 C4.81770664,5.86458164 4.41406484,5.6953125 3.9453125,5.6953125 C3.68489453,5.6953125 3.39843906,5.78645742 3.0859375,5.96875 Z" id=""></path>
                </g>
            </g>
        </g>
    </g>
</svg>